<svg width="83" height="74" viewBox="0 0 83 74" fill="none" xmlns="http://www.w3.org/2000/svg">
<path d="M62.9767 73.2327L6.26696 33.5527C4.33305 32.2023 2.75417 30.4072 1.6641 28.3195C0.574028 26.2317 0.00488281 23.9128 0.00488281 21.5593C0.00488281 19.2057 0.574028 16.8868 1.6641 14.799C2.75417 12.7113 4.33305 10.9162 6.26696 9.5658L20.0035 0L76.7132 39.6852C78.6461 41.0362 80.224 42.8316 81.3134 44.9193C82.4027 47.0069 82.9714 49.3255 82.9714 51.6786C82.9714 54.0318 82.4027 56.3503 81.3134 58.438C80.224 60.5256 78.6461 62.321 76.7132 63.6721L62.9767 73.2327ZM19.9983 6.38065L9.29128 13.8471C8.04662 14.7153 7.03037 15.8698 6.32871 17.2128C5.62706 18.5558 5.26069 20.0476 5.26069 21.5618C5.26069 23.076 5.62706 24.5679 6.32871 25.9109C7.03037 27.2539 8.04662 28.4084 9.29128 29.2765L62.9923 66.852L73.6993 59.3907C74.9429 58.5219 75.9582 57.3671 76.6591 56.0242C77.36 54.6813 77.726 53.1898 77.726 51.676C77.726 50.1622 77.36 48.6708 76.6591 47.3279C75.9582 45.985 74.9429 44.8302 73.6993 43.9613L19.9983 6.38065Z" fill="#4BC0C8"/>
<path d="M62.9767 73.2327L6.26696 33.5527C4.33305 32.2023 2.75417 30.4072 1.6641 28.3195C0.574028 26.2317 0.00488281 23.9128 0.00488281 21.5593C0.00488281 19.2057 0.574028 16.8868 1.6641 14.799C2.75417 12.7113 4.33305 10.9162 6.26696 9.5658L20.0035 0L76.7132 39.6852C78.6461 41.0362 80.224 42.8316 81.3134 44.9193C82.4027 47.0069 82.9714 49.3255 82.9714 51.6786C82.9714 54.0318 82.4027 56.3503 81.3134 58.438C80.224 60.5256 78.6461 62.321 76.7132 63.6721L62.9767 73.2327ZM19.9983 6.38065L9.29128 13.8471C8.04662 14.7153 7.03037 15.8698 6.32871 17.2128C5.62706 18.5558 5.26069 20.0476 5.26069 21.5618C5.26069 23.076 5.62706 24.5679 6.32871 25.9109C7.03037 27.2539 8.04662 28.4084 9.29128 29.2765L62.9923 66.852L73.6993 59.3907C74.9429 58.5219 75.9582 57.3671 76.6591 56.0242C77.36 54.6813 77.726 53.1898 77.726 51.676C77.726 50.1622 77.36 48.6708 76.6591 47.3279C75.9582 45.985 74.9429 44.8302 73.6993 43.9613L19.9983 6.38065Z" fill="#407AFF"/>
<path d="M19.9467 66.8159L9.25527 59.3339C8.01164 58.465 6.99637 57.3103 6.29544 55.9674C5.5945 54.6245 5.22854 53.133 5.22854 51.6192C5.22854 50.1054 5.5945 48.6139 6.29544 47.271C6.99637 45.9281 8.01164 44.7733 9.25527 43.9045L36.9306 24.6178L32.3656 21.4326L6.26208 39.6232C4.32817 40.9735 2.74929 42.7686 1.65922 44.8564C0.569146 46.9441 0 49.263 0 51.6166C0 53.9702 0.569146 56.2891 1.65922 58.3768C2.74929 60.4646 4.32817 62.2597 6.26208 63.6101L19.9623 73.1965L36.9098 61.3763L32.3448 58.1808L19.9467 66.8159Z" fill="#91F2C5"/>
<path d="M76.7394 9.62262L63.034 0.0361328L46.0709 11.8667L50.6359 15.0622L63.0288 6.43746L73.7254 13.9195C74.969 14.7883 75.9843 15.9431 76.6853 17.286C77.3862 18.6289 77.7522 20.1204 77.7522 21.6342C77.7522 23.1479 77.3862 24.6394 76.6853 25.9823C75.9843 27.3252 74.969 28.48 73.7254 29.3489L46.0449 48.6201L50.6099 51.8156L76.7186 33.6095C78.6525 32.2592 80.2314 30.4641 81.3215 28.3763C82.4115 26.2885 82.9807 23.9696 82.9807 21.6161C82.9807 19.2625 82.4115 16.9436 81.3215 14.8558C80.2314 12.7681 78.6525 10.973 76.7186 9.62262H76.7394Z" fill="#91F2C5"/>
<path d="M31.0919 22.2922L9.52539 37.3331L12.532 41.6164L34.0985 26.5754L31.0919 22.2922Z" fill="#91F2C5"/>
<path d="M70.9344 31.2568L60.4297 38.5889L63.4333 42.8702L74.327 35.2641C73.1857 33.9508 72.0601 32.6064 70.9344 31.2568Z" fill="#91F2C5"/>
</svg>
